<svg width="84" height="85" viewBox="0 0 84 85" fill="none" xmlns="http://www.w3.org/2000/svg">
<path d="M77.0754 34.4613C76.8567 33.828 76.459 33.2718 75.9305 32.86C75.402 32.4483 74.7654 32.1987 74.0978 32.1416L54.3976 29.2679L45.5688 11.368C45.2853 10.7826 44.8426 10.289 44.2915 9.94355C43.7404 9.59812 43.1032 9.41492 42.4528 9.41492C41.8023 9.41492 41.1651 9.59812 40.614 9.94355C40.0629 10.289 39.6202 10.7826 39.3367 11.368L30.5079 29.2333L10.8077 32.1416C10.1669 32.2327 9.56445 32.5015 9.06874 32.9177C8.57304 33.3338 8.2039 33.8806 8.00323 34.4959C7.81954 35.0972 7.80306 35.7372 7.95555 36.3472C8.10804 36.9572 8.42375 37.5141 8.8688 37.9582L23.1679 51.8073L19.7057 71.4729C19.5821 72.122 19.6468 72.7929 19.8922 73.4064C20.1376 74.0199 20.5534 74.5504 21.0906 74.9352C21.6141 75.3095 22.2317 75.5304 22.8738 75.5732C23.516 75.616 24.1574 75.479 24.726 75.1775L42.4528 65.9333L60.1103 75.2122C60.5962 75.4863 61.145 75.6295 61.7029 75.6276C62.4363 75.6302 63.1516 75.3999 63.7457 74.9698C64.2828 74.585 64.6987 74.0545 64.9441 73.441C65.1895 72.8275 65.2542 72.1566 65.1306 71.5075L61.6683 51.8419L75.9675 37.9928C76.4674 37.5693 76.8368 37.0127 77.0329 36.3875C77.2291 35.7624 77.2438 35.0945 77.0754 34.4613ZM55.7825 48.3104C55.3764 48.7031 55.0727 49.1892 54.8976 49.7263C54.7226 50.2635 54.6817 50.8352 54.7784 51.3918L57.2712 65.8987L44.2531 58.9741C43.7522 58.7074 43.1934 58.5679 42.6259 58.5679C42.0584 58.5679 41.4995 58.7074 40.9986 58.9741L27.9805 65.8987L30.4733 51.3918C30.57 50.8352 30.5291 50.2635 30.3541 49.7263C30.1791 49.1892 29.8753 48.7031 29.4693 48.3104L19.0825 37.9236L33.6586 35.8116C34.2195 35.7336 34.7527 35.5192 35.2114 35.1872C35.6702 34.8552 36.0405 34.4157 36.2899 33.9074L42.4528 20.7161L48.9618 33.942C49.2112 34.4504 49.5816 34.8898 50.0403 35.2218C50.4991 35.5538 51.0323 35.7682 51.5931 35.8462L66.1693 37.9582L55.7825 48.3104Z" fill="#0D0D0D"/>
</svg>
