<svg width="76" height="76" viewBox="0 0 76 76" fill="none" xmlns="http://www.w3.org/2000/svg">
<path d="M59.977 34.7236H41.0369V15.7835C41.0369 14.9463 40.7043 14.1433 40.1123 13.5513C39.5203 12.9593 38.7174 12.6268 37.8802 12.6268C37.043 12.6268 36.2401 12.9593 35.6481 13.5513C35.0561 14.1433 34.7235 14.9463 34.7235 15.7835V34.7236H15.7834C14.9462 34.7236 14.1433 35.0562 13.5513 35.6482C12.9593 36.2402 12.6267 37.0431 12.6267 37.8803C12.6267 38.7175 12.9593 39.5204 13.5513 40.1124C14.1433 40.7044 14.9462 41.037 15.7834 41.037H34.7235V59.9771C34.7235 60.8143 35.0561 61.6172 35.6481 62.2092C36.2401 62.8012 37.043 63.1338 37.8802 63.1338C38.7174 63.1338 39.5203 62.8012 40.1123 62.2092C40.7043 61.6172 41.0369 60.8143 41.0369 59.9771V41.037H59.977C60.8142 41.037 61.6172 40.7044 62.2091 40.1124C62.8011 39.5204 63.1337 38.7175 63.1337 37.8803C63.1337 37.0431 62.8011 36.2402 62.2091 35.6482C61.6172 35.0562 60.8142 34.7236 59.977 34.7236Z" fill="black"/>
</svg>
