<svg width="80" height="80" viewBox="0 0 80 80" fill="none" xmlns="http://www.w3.org/2000/svg">
<path d="M39.84 36.52C38.9595 36.52 38.1151 36.8698 37.4924 37.4924C36.8698 38.115 36.52 38.9595 36.52 39.84V53.12C36.52 54.0005 36.8698 54.845 37.4924 55.4676C38.1151 56.0902 38.9595 56.44 39.84 56.44C40.7205 56.44 41.565 56.0902 42.1876 55.4676C42.8102 54.845 43.16 54.0005 43.16 53.12V39.84C43.16 38.9595 42.8102 38.115 42.1876 37.4924C41.565 36.8698 40.7205 36.52 39.84 36.52ZM41.1016 23.5056C40.2933 23.1736 39.3867 23.1736 38.5784 23.5056C38.1709 23.6636 37.7986 23.9006 37.4828 24.2028C37.1896 24.5255 36.9538 24.8961 36.7856 25.2984C36.5998 25.6924 36.5088 26.1245 36.52 26.56C36.5175 26.9969 36.6013 27.4301 36.7665 27.8346C36.9317 28.2391 37.1751 28.607 37.4828 28.9172C37.8055 29.2105 38.1761 29.4463 38.5784 29.6144C39.0814 29.8211 39.6274 29.901 40.1685 29.8472C40.7096 29.7934 41.2292 29.6075 41.6817 29.3059C42.1341 29.0043 42.5055 28.5961 42.7633 28.1173C43.0211 27.6385 43.1573 27.1038 43.16 26.56C43.1478 25.681 42.8039 24.839 42.1972 24.2028C41.8815 23.9006 41.5092 23.6636 41.1016 23.5056ZM39.84 6.64001C33.2737 6.64001 26.8548 8.58716 21.3951 12.2352C15.9354 15.8833 11.6801 21.0684 9.16723 27.1349C6.6544 33.2014 5.99693 39.8768 7.27796 46.317C8.55899 52.7572 11.721 58.6729 16.3641 63.316C21.0072 67.9591 26.9229 71.1211 33.363 72.4021C39.8032 73.6831 46.4786 73.0256 52.5451 70.5128C58.6116 68 63.7968 63.7447 67.4448 58.2849C71.0929 52.8252 73.04 46.4064 73.04 39.84C73.04 35.4801 72.1813 31.1629 70.5128 27.1349C68.8444 23.1069 66.3989 19.447 63.316 16.3641C60.2331 13.2812 56.5731 10.8357 52.5451 9.16721C48.5171 7.49876 44.1999 6.64001 39.84 6.64001V6.64001ZM39.84 66.4C34.587 66.4 29.4519 64.8423 25.0841 61.9238C20.7163 59.0054 17.3121 54.8573 15.3018 50.0041C13.2915 45.1509 12.7655 39.8106 13.7904 34.6584C14.8152 29.5063 17.3448 24.7737 21.0593 21.0593C24.7738 17.3448 29.5063 14.8152 34.6584 13.7904C39.8106 12.7655 45.1509 13.2915 50.0041 15.3018C54.8573 17.312 59.0054 20.7163 61.9239 25.0841C64.8423 29.4518 66.4 34.5869 66.4 39.84C66.4 46.8842 63.6018 53.6398 58.6208 58.6208C53.6398 63.6017 46.8842 66.4 39.84 66.4V66.4Z" fill="#0D0D0D"/>
</svg>
