<svg width="80" height="80" viewBox="0 0 80 80" fill="none" xmlns="http://www.w3.org/2000/svg">
<path d="M49.8 39.84C49.8 40.4966 49.9947 41.1385 50.3595 41.6845C50.7243 42.2304 51.2429 42.656 51.8495 42.9073C52.4562 43.1585 53.1237 43.2243 53.7677 43.0962C54.4117 42.9681 55.0033 42.6519 55.4676 42.1876C55.9319 41.7233 56.2481 41.1317 56.3762 40.4877C56.5043 39.8437 56.4386 39.1761 56.1873 38.5695C55.936 37.9628 55.5105 37.4443 54.9645 37.0795C54.4185 36.7147 53.7766 36.52 53.12 36.52C52.2395 36.52 51.395 36.8698 50.7724 37.4924C50.1498 38.115 49.8 38.9595 49.8 39.84ZM72.0772 37.4828L55.4772 20.8828C55.167 20.5751 54.7991 20.3316 54.3946 20.1664C53.9901 20.0012 53.5569 19.9175 53.12 19.92H16.6C13.9585 19.92 11.4251 20.9693 9.55723 22.8372C7.68937 24.7051 6.64001 27.2384 6.64001 29.88V49.8C6.64001 52.4415 7.68937 54.9749 9.55723 56.8428C11.4251 58.7106 13.9585 59.76 16.6 59.76H53.12C53.5569 59.7625 53.9901 59.6788 54.3946 59.5135C54.7991 59.3483 55.167 59.1049 55.4772 58.7972L72.0772 42.1972C72.3884 41.8885 72.6354 41.5213 72.8039 41.1168C72.9725 40.7122 73.0593 40.2783 73.0593 39.84C73.0593 39.4017 72.9725 38.9678 72.8039 38.5632C72.6354 38.1586 72.3884 37.7914 72.0772 37.4828ZM51.7588 53.12H16.6C15.7195 53.12 14.875 52.7702 14.2524 52.1476C13.6298 51.525 13.28 50.6805 13.28 49.8V29.88C13.28 28.9995 13.6298 28.155 14.2524 27.5324C14.875 26.9098 15.7195 26.56 16.6 26.56H51.7588L65.0388 39.84L51.7588 53.12Z" fill="#0D0D0D"/>
</svg>
