<svg width="76" height="76" viewBox="0 0 76 76" fill="none" xmlns="http://www.w3.org/2000/svg">
<path d="M38.2274 48.5813L25.9794 60.8293C24.4965 62.2604 22.5161 63.0602 20.4552 63.0602C18.3944 63.0602 16.4139 62.2604 14.931 60.8293C14.2037 60.1048 13.6267 59.2439 13.2329 58.296C12.8391 57.348 12.6364 56.3316 12.6364 55.3051C12.6364 54.2785 12.8391 53.2621 13.2329 52.3142C13.6267 51.3662 14.2037 50.5053 14.931 49.7808L27.179 37.5329C27.7734 36.9385 28.1073 36.1323 28.1073 35.2917C28.1073 34.451 27.7734 33.6448 27.179 33.0504C26.5846 32.456 25.7784 32.122 24.9377 32.122C24.0971 32.122 23.2909 32.456 22.6965 33.0504L10.4485 45.3299C7.98113 48.0156 6.64668 51.5507 6.72387 55.1969C6.80107 58.8432 8.28393 62.3186 10.8628 64.8975C13.4417 67.4764 16.9171 68.9592 20.5633 69.0364C24.2096 69.1136 27.7447 67.7792 30.4304 65.3118L42.7099 53.0638C43.3043 52.4694 43.6382 51.6632 43.6382 50.8226C43.6382 49.9819 43.3043 49.1757 42.7099 48.5813C42.1155 47.9869 41.3093 47.6529 40.4686 47.6529C39.628 47.6529 38.8218 47.9869 38.2274 48.5813V48.5813ZM65.3118 10.4485C62.6563 7.80955 59.0646 6.32837 55.3209 6.32837C51.5771 6.32837 47.9854 7.80955 45.3299 10.4485L33.0504 22.6965C32.7561 22.9908 32.5226 23.3402 32.3633 23.7248C32.204 24.1093 32.1221 24.5215 32.1221 24.9377C32.1221 25.354 32.204 25.7661 32.3633 26.1507C32.5226 26.5352 32.7561 26.8846 33.0504 27.179C33.3447 27.4733 33.6942 27.7068 34.0787 27.866C34.4633 28.0253 34.8754 28.1073 35.2917 28.1073C35.7079 28.1073 36.1201 28.0253 36.5046 27.866C36.8892 27.7068 37.2386 27.4733 37.5329 27.179L49.7809 14.931C51.2638 13.4999 53.2442 12.7 55.3051 12.7C57.3659 12.7 59.3464 13.4999 60.8293 14.931C61.5566 15.6554 62.1336 16.5163 62.5274 17.4643C62.9212 18.4123 63.1239 19.4287 63.1239 20.4552C63.1239 21.4817 62.9212 22.4981 62.5274 23.4461C62.1336 24.3941 61.5566 25.255 60.8293 25.9794L48.5813 38.2274C48.2855 38.5208 48.0506 38.87 47.8904 39.2546C47.7301 39.6393 47.6476 40.0519 47.6476 40.4686C47.6476 40.8853 47.7301 41.2979 47.8904 41.6826C48.0506 42.0673 48.2855 42.4164 48.5813 42.7099C48.8748 43.0057 49.2239 43.2406 49.6086 43.4008C49.9933 43.5611 50.4059 43.6436 50.8226 43.6436C51.2393 43.6436 51.6519 43.5611 52.0366 43.4008C52.4212 43.2406 52.7704 43.0057 53.0638 42.7099L65.3118 30.4304C67.9507 27.7749 69.4319 24.1832 69.4319 20.4394C69.4319 16.6957 67.9507 13.104 65.3118 10.4485V10.4485ZM27.8734 47.8868C28.1684 48.1794 28.5182 48.4109 28.9028 48.568C29.2874 48.725 29.6993 48.8047 30.1147 48.8023C30.5301 48.8047 30.942 48.725 31.3266 48.568C31.7112 48.4109 32.061 48.1794 32.3559 47.8868L47.8869 32.3559C48.4813 31.7615 48.8152 30.9553 48.8152 30.1147C48.8152 29.274 48.4813 28.4678 47.8869 27.8734C47.2924 27.279 46.4862 26.9451 45.6456 26.9451C44.805 26.9451 43.9988 27.279 43.4044 27.8734L27.8734 43.4043C27.5776 43.6978 27.3427 44.0469 27.1825 44.4316C27.0222 44.8163 26.9397 45.2289 26.9397 45.6456C26.9397 46.0623 27.0222 46.4749 27.1825 46.8596C27.3427 47.2442 27.5776 47.5934 27.8734 47.8868Z" fill="black"/>
</svg>
