<svg width="100" height="100" viewBox="0 0 100 100" fill="none" xmlns="http://www.w3.org/2000/svg">
<path d="M41.6667 75C42.7717 75 43.8315 74.5611 44.6129 73.7797C45.3943 72.9983 45.8333 71.9384 45.8333 70.8334V45.8334C45.8333 44.7283 45.3943 43.6685 44.6129 42.8871C43.8315 42.1057 42.7717 41.6667 41.6667 41.6667C40.5616 41.6667 39.5018 42.1057 38.7204 42.8871C37.939 43.6685 37.5 44.7283 37.5 45.8334V70.8334C37.5 71.9384 37.939 72.9983 38.7204 73.7797C39.5018 74.5611 40.5616 75 41.6667 75ZM83.3333 25H66.6667V20.8334C66.6667 17.5182 65.3497 14.3387 63.0055 11.9945C60.6613 9.65033 57.4819 8.33337 54.1667 8.33337H45.8333C42.5181 8.33337 39.3387 9.65033 36.9945 11.9945C34.6503 14.3387 33.3333 17.5182 33.3333 20.8334V25H16.6667C15.5616 25 14.5018 25.439 13.7204 26.2204C12.939 27.0018 12.5 28.0616 12.5 29.1667C12.5 30.2718 12.939 31.3316 13.7204 32.113C14.5018 32.8944 15.5616 33.3334 16.6667 33.3334H20.8333V79.1667C20.8333 82.4819 22.1503 85.6613 24.4945 88.0055C26.8387 90.3497 30.0181 91.6667 33.3333 91.6667H66.6667C69.9819 91.6667 73.1613 90.3497 75.5055 88.0055C77.8497 85.6613 79.1667 82.4819 79.1667 79.1667V33.3334H83.3333C84.4384 33.3334 85.4982 32.8944 86.2796 32.113C87.061 31.3316 87.5 30.2718 87.5 29.1667C87.5 28.0616 87.061 27.0018 86.2796 26.2204C85.4982 25.439 84.4384 25 83.3333 25ZM41.6667 20.8334C41.6667 19.7283 42.1057 18.6685 42.8871 17.8871C43.6685 17.1057 44.7283 16.6667 45.8333 16.6667H54.1667C55.2717 16.6667 56.3315 17.1057 57.1129 17.8871C57.8943 18.6685 58.3333 19.7283 58.3333 20.8334V25H41.6667V20.8334ZM70.8333 79.1667C70.8333 80.2718 70.3943 81.3316 69.6129 82.113C68.8315 82.8944 67.7717 83.3334 66.6667 83.3334H33.3333C32.2283 83.3334 31.1685 82.8944 30.3871 82.113C29.6057 81.3316 29.1667 80.2718 29.1667 79.1667V33.3334H70.8333V79.1667ZM58.3333 75C59.4384 75 60.4982 74.5611 61.2796 73.7797C62.061 72.9983 62.5 71.9384 62.5 70.8334V45.8334C62.5 44.7283 62.061 43.6685 61.2796 42.8871C60.4982 42.1057 59.4384 41.6667 58.3333 41.6667C57.2283 41.6667 56.1685 42.1057 55.3871 42.8871C54.6057 43.6685 54.1667 44.7283 54.1667 45.8334V70.8334C54.1667 71.9384 54.6057 72.9983 55.3871 73.7797C56.1685 74.5611 57.2283 75 58.3333 75Z" fill="#EE5906"/>
</svg>
