<svg width="76" height="76" viewBox="0 0 76 76" fill="none" xmlns="http://www.w3.org/2000/svg">
<path d="M46.4664 27.7473L32.9243 41.321L27.7157 36.1125C27.4327 35.782 27.0845 35.5137 26.6929 35.3242C26.3012 35.1347 25.8746 35.0282 25.4399 35.0114C25.0052 34.9946 24.5717 35.0679 24.1666 35.2266C23.7615 35.3853 23.3936 35.626 23.086 35.9337C22.7783 36.2413 22.5376 36.6092 22.3789 37.0143C22.2202 37.4194 22.1469 37.8529 22.1637 38.2876C22.1805 38.7224 22.287 39.1489 22.4765 39.5406C22.666 39.9322 22.9343 40.2804 23.2648 40.5634L30.683 48.0132C30.978 48.3058 31.3278 48.5372 31.7124 48.6943C32.097 48.8514 32.5088 48.931 32.9243 48.9286C33.7524 48.9252 34.546 48.5964 35.1339 48.0132L50.9174 32.2298C51.2132 31.9363 51.4481 31.5872 51.6083 31.2025C51.7686 30.8178 51.8511 30.4052 51.8511 29.9885C51.8511 29.5718 51.7686 29.1592 51.6083 28.7745C51.4481 28.3899 51.2132 28.0407 50.9174 27.7473C50.3259 27.1593 49.5259 26.8293 48.6919 26.8293C47.858 26.8293 47.0579 27.1593 46.4664 27.7473ZM37.8802 6.31335C31.6369 6.31335 25.5338 8.16472 20.3426 11.6333C15.1515 15.1019 11.1055 20.032 8.71625 25.8001C6.32703 31.5682 5.7019 37.9153 6.91992 44.0386C8.13793 50.162 11.1444 55.7867 15.5591 60.2014C19.9738 64.6161 25.5985 67.6226 31.7219 68.8406C37.8452 70.0586 44.1923 69.4335 49.9604 67.0442C55.7285 64.655 60.6585 60.609 64.1271 55.4179C67.5958 50.2267 69.4471 44.1236 69.4471 37.8802C69.4471 33.7348 68.6306 29.63 67.0442 25.8001C65.4579 21.9702 63.1327 18.4903 60.2014 15.5591C57.2701 12.6278 53.7902 10.3026 49.9604 8.71624C46.1305 7.12986 42.0257 6.31335 37.8802 6.31335V6.31335ZM37.8802 63.1337C32.8856 63.1337 28.0031 61.6526 23.8502 58.8778C19.6972 56.1029 16.4604 52.1588 14.5491 47.5443C12.6377 42.9299 12.1376 37.8522 13.112 32.9535C14.0864 28.0548 16.4916 23.5551 20.0233 20.0233C23.5551 16.4915 28.0548 14.0864 32.9535 13.112C37.8522 12.1376 42.9299 12.6377 47.5443 14.549C52.1588 16.4604 56.1029 19.6972 58.8778 23.8501C61.6527 28.0031 63.1338 32.8856 63.1338 37.8802C63.1338 44.5779 60.4731 51.0012 55.7372 55.7372C51.0012 60.4731 44.5779 63.1337 37.8802 63.1337V63.1337Z" fill="black"/>
</svg>
