<svg width="91" height="91" viewBox="0 0 91 91" fill="none" xmlns="http://www.w3.org/2000/svg">
<path d="M78.9251 50.7375C77.9283 50.7375 76.9723 51.1334 76.2675 51.8383C75.5627 52.5431 75.1667 53.499 75.1667 54.4958V69.5291C75.1667 70.5259 74.7708 71.4819 74.0659 72.1867C73.3611 72.8915 72.4052 73.2875 71.4084 73.2875H18.7917C17.795 73.2875 16.839 72.8915 16.1342 72.1867C15.4294 71.4819 15.0334 70.5259 15.0334 69.5291V33.4867L37.1324 55.5857C39.2465 57.6972 42.1122 58.8831 45.1001 58.8831C48.0879 58.8831 50.9537 57.6972 53.0677 55.5857L66.5601 42.1309C67.2678 41.4232 67.6654 40.4633 67.6654 39.4625C67.6654 38.4616 67.2678 37.5018 66.5601 36.7941C65.8524 36.0864 64.8926 35.6888 63.8917 35.6888C62.8909 35.6888 61.931 36.0864 61.2233 36.7941L47.7685 50.2865C47.4191 50.6387 47.0034 50.9183 46.5454 51.1091C46.0874 51.3 45.5962 51.3982 45.1001 51.3982C44.6039 51.3982 44.1127 51.3 43.6547 51.1091C43.1967 50.9183 42.781 50.6387 42.4316 50.2865L20.3326 28.1875H63.8917C64.8885 28.1875 65.8444 27.7915 66.5493 27.0867C67.2541 26.3819 67.6501 25.4259 67.6501 24.4291C67.6501 23.4324 67.2541 22.4764 66.5493 21.7716C65.8444 21.0668 64.8885 20.6708 63.8917 20.6708H18.7917C15.8014 20.6708 12.9336 21.8587 10.8191 23.9732C8.70462 26.0877 7.51672 28.9555 7.51672 31.9458V69.5291C7.51672 72.5195 8.70462 75.3873 10.8191 77.5018C12.9336 79.6162 15.8014 80.8041 18.7917 80.8041H71.4084C74.3987 80.8041 77.2665 79.6162 79.381 77.5018C81.4955 75.3873 82.6834 72.5195 82.6834 69.5291V54.4958C82.6834 53.499 82.2874 52.5431 81.5826 51.8383C80.8778 51.1334 79.9218 50.7375 78.9251 50.7375ZM78.9251 16.9125C79.9201 16.8986 80.8732 16.5093 81.5935 15.8226L82.0445 15.2212C82.1932 15.0294 82.3077 14.8132 82.3827 14.5823C82.5172 14.3737 82.6187 14.1455 82.6834 13.9058C82.7018 13.6556 82.7018 13.4044 82.6834 13.1541C82.6695 12.1591 82.2802 11.206 81.5935 10.4857C81.2441 10.1335 80.8284 9.85387 80.3704 9.66307C79.9124 9.47226 79.4212 9.37402 78.9251 9.37402C78.4289 9.37402 77.9377 9.47226 77.4797 9.66307C77.0217 9.85387 76.606 10.1335 76.2566 10.4857C75.9044 10.8351 75.6248 11.2508 75.434 11.7088C75.2432 12.1668 75.1449 12.658 75.1449 13.1541C75.1449 13.6503 75.2432 14.1415 75.434 14.5995C75.6248 15.0575 75.9044 15.4732 76.2566 15.8226C76.9769 16.5093 77.93 16.8986 78.9251 16.9125ZM78.9251 20.6708C77.9283 20.6708 76.9723 21.0668 76.2675 21.7716C75.5627 22.4764 75.1667 23.4324 75.1667 24.4291V39.4625C75.1667 40.4593 75.5627 41.4152 76.2675 42.12C76.9723 42.8248 77.9283 43.2208 78.9251 43.2208C79.9218 43.2208 80.8778 42.8248 81.5826 42.12C82.2874 41.4152 82.6834 40.4593 82.6834 39.4625V24.4291C82.6834 23.4324 82.2874 22.4764 81.5826 21.7716C80.8778 21.0668 79.9218 20.6708 78.9251 20.6708Z" fill="#0D0D0D"/>
</svg>
