<svg width="76" height="76" viewBox="0 0 76 76" fill="none" xmlns="http://www.w3.org/2000/svg">
<path d="M42.3311 37.8802L62.2183 18.0247C62.8127 17.4303 63.1466 16.6241 63.1466 15.7834C63.1466 14.9428 62.8127 14.1366 62.2183 13.5422C61.6239 12.9478 60.8177 12.6138 59.977 12.6138C59.1364 12.6138 58.3302 12.9478 57.7358 13.5422L37.8802 33.4293L18.0246 13.5422C17.4302 12.9478 16.624 12.6138 15.7834 12.6138C14.9428 12.6138 14.1366 12.9478 13.5421 13.5422C12.9477 14.1366 12.6138 14.9428 12.6138 15.7834C12.6138 16.6241 12.9477 17.4303 13.5421 18.0247L33.4293 37.8802L13.5421 57.7358C13.2463 58.0293 13.0114 58.3784 12.8512 58.7631C12.6909 59.1477 12.6084 59.5603 12.6084 59.9771C12.6084 60.3938 12.6909 60.8064 12.8512 61.1911C13.0114 61.5757 13.2463 61.9249 13.5421 62.2183C13.8356 62.5142 14.1847 62.749 14.5694 62.9093C14.9541 63.0695 15.3667 63.1521 15.7834 63.1521C16.2001 63.1521 16.6127 63.0695 16.9974 62.9093C17.3821 62.749 17.7312 62.5142 18.0246 62.2183L37.8802 42.3312L57.7358 62.2183C58.0292 62.5142 58.3784 62.749 58.763 62.9093C59.1477 63.0695 59.5603 63.1521 59.977 63.1521C60.3937 63.1521 60.8063 63.0695 61.191 62.9093C61.5757 62.749 61.9248 62.5142 62.2183 62.2183C62.5141 61.9249 62.749 61.5757 62.9092 61.1911C63.0695 60.8064 63.152 60.3938 63.152 59.9771C63.152 59.5603 63.0695 59.1477 62.9092 58.7631C62.749 58.3784 62.5141 58.0293 62.2183 57.7358L42.3311 37.8802Z" fill="black"/>
</svg>
