<svg width="100" height="100" viewBox="0 0 100 100" fill="none" xmlns="http://www.w3.org/2000/svg">
<path d="M47.0417 49.9999L61.7917 35.2499C62.5677 34.4693 63.0033 33.4132 63.0033 32.3124C63.0033 31.2117 62.5677 30.1556 61.7917 29.3749C61.4043 28.9844 60.9435 28.6744 60.4357 28.4629C59.928 28.2514 59.3834 28.1425 58.8333 28.1425C58.2833 28.1425 57.7387 28.2514 57.2309 28.4629C56.7232 28.6744 56.2623 28.9844 55.875 29.3749L38.2083 47.0416C37.8178 47.429 37.5078 47.8898 37.2963 48.3975C37.0847 48.9053 36.9758 49.4499 36.9758 49.9999C36.9758 50.55 37.0847 51.0946 37.2963 51.6024C37.5078 52.1101 37.8178 52.5709 38.2083 52.9583L55.875 70.8333C56.2643 71.2195 56.7261 71.525 57.2337 71.7323C57.7414 71.9397 58.285 72.0448 58.8333 72.0416C59.3817 72.0448 59.9253 71.9397 60.4329 71.7323C60.9406 71.525 61.4023 71.2195 61.7917 70.8333C62.5677 70.0526 63.0033 68.9966 63.0033 67.8958C63.0033 66.795 62.5677 65.739 61.7917 64.9583L47.0417 49.9999Z" fill="black"/>
</svg>
