<svg width="84" height="84" viewBox="0 0 84 84" fill="none" xmlns="http://www.w3.org/2000/svg">
<path d="M69.7993 16.8668C66.1234 13.1899 61.25 10.9544 56.0653 10.5668C50.8806 10.1792 45.7289 11.6653 41.5472 14.7548C37.142 11.4783 31.659 9.99253 26.2022 10.5968C20.7454 11.201 15.7203 13.8504 12.1387 18.0114C8.55706 22.1724 6.68507 27.5359 6.89966 33.0218C7.11425 38.5077 9.39947 43.7086 13.2951 47.5771L39.089 73.371C39.4109 73.6955 39.7938 73.9531 40.2157 74.1288C40.6376 74.3046 41.0902 74.3951 41.5472 74.3951C42.0043 74.3951 42.4568 74.3046 42.8787 74.1288C43.3006 73.9531 43.6836 73.6955 44.0054 73.371L69.7993 47.5771C71.8166 45.5611 73.4169 43.1674 74.5087 40.5327C75.6006 37.898 76.1625 35.0739 76.1625 32.222C76.1625 29.37 75.6006 26.546 74.5087 23.9113C73.4169 21.2766 71.8166 18.8828 69.7993 16.8668V16.8668ZM64.9175 42.6953L41.5472 66.031L18.1769 42.6953C16.1175 40.6273 14.7146 37.9972 14.1442 35.1349C13.5738 32.2726 13.8613 29.3056 14.9707 26.6061C16.0801 23.9067 17.9619 21.5949 20.3801 19.9608C22.7984 18.3267 25.6453 17.4431 28.5637 17.4208C32.4626 17.4303 36.1984 18.9869 38.9505 21.7486C39.2724 22.0731 39.6553 22.3307 40.0772 22.5065C40.4991 22.6822 40.9517 22.7727 41.4087 22.7727C41.8658 22.7727 42.3183 22.6822 42.7402 22.5065C43.1622 22.3307 43.5451 22.0731 43.8669 21.7486C46.7002 19.2935 50.3604 18.0064 54.1067 18.1479C57.8531 18.2895 61.4057 19.849 64.0457 22.511C66.6856 25.1729 68.2156 28.7384 68.3261 32.4857C68.4365 36.2331 67.1191 39.8825 64.6405 42.6953H64.9175Z" fill="#0D0D0D"/>
</svg>
