<svg width="80" height="80" viewBox="0 0 80 80" fill="none" xmlns="http://www.w3.org/2000/svg">
<path d="M33.8973 20.6173L36.5201 17.9613V33.2001C36.5201 34.0806 36.8699 34.925 37.4925 35.5477C38.1152 36.1703 38.9596 36.5201 39.8401 36.5201C40.7207 36.5201 41.5651 36.1703 42.1877 35.5477C42.8104 34.925 43.1601 34.0806 43.1601 33.2001V17.9613L45.7829 20.6173C46.0916 20.9284 46.4588 21.1754 46.8633 21.344C47.2679 21.5125 47.7019 21.5993 48.1401 21.5993C48.5784 21.5993 49.0124 21.5125 49.4169 21.344C49.8215 21.1754 50.1887 20.9284 50.4973 20.6173C50.8085 20.3086 51.0555 19.9414 51.2241 19.5369C51.3926 19.1323 51.4794 18.6983 51.4794 18.2601C51.4794 17.8218 51.3926 17.3878 51.2241 16.9833C51.0555 16.5787 50.8085 16.2115 50.4973 15.9029L42.1973 7.60286C41.8816 7.30061 41.5093 7.06367 41.1017 6.90566C40.2935 6.5736 39.3868 6.5736 38.5785 6.90566C38.171 7.06367 37.7987 7.30061 37.4829 7.60286L29.1829 15.9029C28.5578 16.528 28.2066 17.3759 28.2066 18.2601C28.2066 19.1442 28.5578 19.9921 29.1829 20.6173C29.8081 21.2424 30.656 21.5936 31.5401 21.5936C32.4243 21.5936 33.2722 21.2424 33.8973 20.6173V20.6173ZM59.7601 25.0993C59.4462 24.7853 59.0736 24.5363 58.6634 24.3665C58.2533 24.1966 57.8137 24.1091 57.3697 24.1091C56.9258 24.1091 56.4862 24.1966 56.0761 24.3665C55.6659 24.5363 55.2933 24.7853 54.9793 25.0993C54.6654 25.4132 54.4164 25.7858 54.2465 26.196C54.0766 26.6061 53.9892 27.0457 53.9892 27.4897C53.9892 27.9336 54.0766 28.3732 54.2465 28.7833C54.4164 29.1935 54.6654 29.5661 54.9793 29.8801C57.9749 32.8745 60.0152 36.6901 60.8421 40.8443C61.669 44.9984 61.2454 49.3044 59.6248 53.2178C58.0043 57.1311 55.2596 60.476 51.7379 62.8294C48.2163 65.1827 44.0758 66.4388 39.8401 66.4388C35.6045 66.4388 31.464 65.1827 27.9423 62.8294C24.4207 60.476 21.676 57.1311 20.0554 53.2178C18.4349 49.3044 18.0113 44.9984 18.8382 40.8443C19.6651 36.6901 21.7054 32.8745 24.7009 29.8801C25.0149 29.5661 25.2639 29.1935 25.4337 28.7833C25.6036 28.3732 25.6911 27.9336 25.6911 27.4897C25.6911 27.0457 25.6036 26.6061 25.4337 26.196C25.2639 25.7858 25.0149 25.4132 24.7009 25.0993C24.387 24.7853 24.0144 24.5363 23.6042 24.3665C23.1941 24.1966 22.7545 24.1091 22.3105 24.1091C21.8666 24.1091 21.427 24.1966 21.0169 24.3665C20.6067 24.5363 20.2341 24.7853 19.9201 25.0993C16.0089 29.034 13.3505 34.0389 12.2804 39.4827C11.2103 44.9265 11.7763 50.5652 13.9071 55.6877C16.0378 60.8102 19.6379 65.1869 24.2532 68.2657C28.8685 71.3445 34.2922 72.9876 39.8401 72.9876C45.3881 72.9876 50.8118 71.3445 55.4271 68.2657C60.0423 65.1869 63.6424 60.8102 65.7732 55.6877C67.904 50.5652 68.47 44.9265 67.3999 39.4827C66.3297 34.0389 63.6714 29.034 59.7601 25.0993V25.0993Z" fill="#0D0D0D"/>
</svg>
