<svg width="80" height="80" viewBox="0 0 80 80" fill="none" xmlns="http://www.w3.org/2000/svg">
<path d="M69.9999 26.6667H23.3332C22.4492 26.6667 21.6013 26.3155 20.9762 25.6904C20.3511 25.0652 19.9999 24.2174 19.9999 23.3333C19.9999 22.4493 20.3511 21.6014 20.9762 20.9763C21.6013 20.3512 22.4492 20 23.3332 20H69.9999C70.8839 20 71.7318 20.3512 72.3569 20.9763C72.982 21.6014 73.3332 22.4493 73.3332 23.3333C73.3332 24.2174 72.982 25.0652 72.3569 25.6904C71.7318 26.3155 70.8839 26.6667 69.9999 26.6667ZM69.9999 43.3333H23.3332C22.4492 43.3333 21.6013 42.9821 20.9762 42.357C20.3511 41.7319 19.9999 40.8841 19.9999 40C19.9999 39.1159 20.3511 38.2681 20.9762 37.643C21.6013 37.0179 22.4492 36.6667 23.3332 36.6667H69.9999C70.8839 36.6667 71.7318 37.0179 72.3569 37.643C72.982 38.2681 73.3332 39.1159 73.3332 40C73.3332 40.8841 72.982 41.7319 72.3569 42.357C71.7318 42.9821 70.8839 43.3333 69.9999 43.3333ZM69.9999 60H23.3332C22.4492 60 21.6013 59.6488 20.9762 59.0237C20.3511 58.3986 19.9999 57.5507 19.9999 56.6667C19.9999 55.7826 20.3511 54.9348 20.9762 54.3096C21.6013 53.6845 22.4492 53.3333 23.3332 53.3333H69.9999C70.8839 53.3333 71.7318 53.6845 72.3569 54.3096C72.982 54.9348 73.3332 55.7826 73.3332 56.6667C73.3332 57.5507 72.982 58.3986 72.3569 59.0237C71.7318 59.6488 70.8839 60 69.9999 60ZM9.99987 26.6667C9.56385 26.6615 9.13308 26.5708 8.73198 26.3997C8.32853 26.2308 7.95692 25.9941 7.63321 25.7C7.33884 25.3755 7.10164 25.0035 6.93171 24.5997C6.75674 24.2005 6.66641 23.7694 6.66641 23.3335C6.66641 22.8976 6.75674 22.4664 6.93171 22.0672C7.10085 21.6629 7.33813 21.2907 7.63321 20.9667C8.10135 20.5033 8.69653 20.1895 9.34328 20.0648C9.99003 19.9402 10.6592 20.0105 11.266 20.2667C11.6741 20.4278 12.0476 20.6654 12.3665 20.9667C12.6606 21.2911 12.8973 21.6631 13.0665 22.0669C13.2426 22.4659 13.3335 22.8971 13.3335 23.3332C13.3335 23.7693 13.2426 24.2005 13.0665 24.5995C12.8966 25.003 12.6599 25.375 12.3665 25.7C12.056 26.0102 11.6868 26.2554 11.2804 26.4213C10.8741 26.5873 10.4388 26.6707 9.99987 26.6667V26.6667ZM9.99987 43.3333C9.56385 43.3281 9.13308 43.2375 8.73198 43.0664C8.32853 42.8975 7.95692 42.6608 7.63321 42.3667C7.33884 42.0422 7.10164 41.6702 6.93171 41.2664C6.75674 40.8672 6.66641 40.436 6.66641 40.0001C6.66641 39.5642 6.75674 39.1331 6.93171 38.7339C7.09303 38.3255 7.33117 37.952 7.63321 37.6333C7.95686 37.3391 8.32842 37.1024 8.73184 36.9333C9.33894 36.6771 10.0084 36.6069 10.6555 36.7315C11.3025 36.8561 11.898 37.17 12.3665 37.6333C12.6676 37.9524 12.9051 38.3258 13.0665 38.7336C13.2426 39.1325 13.3335 39.5638 13.3335 39.9999C13.3335 40.4359 13.2426 40.8672 13.0665 41.2661C12.8965 41.6695 12.6599 42.0415 12.3665 42.3664C12.0423 42.6607 11.6702 42.8974 11.2663 43.0664C10.8657 43.2373 10.4354 43.328 9.99987 43.3333V43.3333ZM9.99987 60C9.56385 59.9948 9.13308 59.9041 8.73198 59.7331C8.32853 59.5641 7.95692 59.3275 7.63321 59.0333C7.16709 58.567 6.8512 57.9718 6.72618 57.3244C6.60117 56.6769 6.67275 56.0069 6.93171 55.4005C7.09303 54.9922 7.33117 54.6186 7.63321 54.3C7.95122 53.9985 8.32419 53.7608 8.73184 53.6C9.54329 53.2647 10.4546 53.2647 11.266 53.6C11.674 53.7612 12.0474 53.9988 12.3663 54.3C12.6673 54.619 12.9048 54.9924 13.0663 55.4003C13.3264 56.0064 13.3987 56.6765 13.274 57.3242C13.1493 57.9718 12.8332 58.5672 12.3665 59.0333C12.0423 59.3276 11.6702 59.5643 11.2663 59.7333C10.8656 59.9042 10.4354 59.9947 9.99987 60V60Z" fill="#0D0D0D"/>
</svg>
