<svg width="98" height="98" viewBox="0 0 98 98" fill="none" xmlns="http://www.w3.org/2000/svg">
<path d="M32.3507 48.5261C32.3507 49.5985 32.7767 50.6271 33.5351 51.3855C34.2934 52.1438 35.322 52.5699 36.3945 52.5699H60.6575C61.73 52.5699 62.7586 52.1438 63.5169 51.3855C64.2753 50.6271 64.7013 49.5985 64.7013 48.5261C64.7013 47.4536 64.2753 46.425 63.5169 45.6666C62.7586 44.9083 61.73 44.4822 60.6575 44.4822H36.3945C35.322 44.4822 34.2934 44.9083 33.5351 45.6666C32.7767 46.425 32.3507 47.4536 32.3507 48.5261ZM40.4383 60.6576H28.3068C25.0893 60.6576 22.0036 59.3794 19.7286 57.1043C17.4535 54.8292 16.1753 51.7435 16.1753 48.5261C16.1753 45.3086 17.4535 42.2229 19.7286 39.9478C22.0036 37.6727 25.0893 36.3946 28.3068 36.3946H40.4383C41.5108 36.3946 42.5394 35.9685 43.2977 35.2101C44.0561 34.4518 44.4822 33.4232 44.4822 32.3507C44.4822 31.2782 44.0561 30.2497 43.2977 29.4913C42.5394 28.7329 41.5108 28.3069 40.4383 28.3069H28.3068C22.9444 28.3069 17.8015 30.4371 14.0097 34.2289C10.2179 38.0208 8.08765 43.1636 8.08765 48.5261C8.08765 53.8885 10.2179 59.0313 14.0097 62.8232C17.8015 66.615 22.9444 68.7452 28.3068 68.7452H40.4383C41.5108 68.7452 42.5394 68.3192 43.2977 67.5608C44.0561 66.8025 44.4822 65.7739 44.4822 64.7014C44.4822 63.6289 44.0561 62.6003 43.2977 61.842C42.5394 61.0836 41.5108 60.6576 40.4383 60.6576ZM68.7452 28.3069H56.6137C55.5412 28.3069 54.5126 28.7329 53.7542 29.4913C52.9959 30.2497 52.5698 31.2782 52.5698 32.3507C52.5698 33.4232 52.9959 34.4518 53.7542 35.2101C54.5126 35.9685 55.5412 36.3946 56.6137 36.3946H68.7452C71.9626 36.3946 75.0483 37.6727 77.3234 39.9478C79.5985 42.2229 80.8767 45.3086 80.8767 48.5261C80.8767 51.7435 79.5985 54.8292 77.3234 57.1043C75.0483 59.3794 71.9626 60.6576 68.7452 60.6576H56.6137C55.5412 60.6576 54.5126 61.0836 53.7542 61.842C52.9959 62.6003 52.5698 63.6289 52.5698 64.7014C52.5698 65.7739 52.9959 66.8025 53.7542 67.5608C54.5126 68.3192 55.5412 68.7452 56.6137 68.7452H68.7452C74.1076 68.7452 79.2505 66.615 83.0423 62.8232C86.8341 59.0313 88.9643 53.8885 88.9643 48.5261C88.9643 43.1636 86.8341 38.0208 83.0423 34.2289C79.2505 30.4371 74.1076 28.3069 68.7452 28.3069V28.3069Z" fill="#0D0D0D"/>
</svg>
