<svg width="98" height="98" viewBox="0 0 98 98" fill="none" xmlns="http://www.w3.org/2000/svg">
<path d="M36.3945 40.4383H40.4383C41.5108 40.4383 42.5394 40.0123 43.2977 39.2539C44.0561 38.4955 44.4821 37.467 44.4821 36.3945C44.4821 35.322 44.0561 34.2934 43.2977 33.5351C42.5394 32.7767 41.5108 32.3507 40.4383 32.3507H36.3945C35.322 32.3507 34.2934 32.7767 33.535 33.5351C32.7767 34.2934 32.3506 35.322 32.3506 36.3945C32.3506 37.467 32.7767 38.4955 33.535 39.2539C34.2934 40.0123 35.322 40.4383 36.3945 40.4383V40.4383ZM36.3945 48.526C35.322 48.526 34.2934 48.952 33.535 49.7104C32.7767 50.4688 32.3506 51.4973 32.3506 52.5698C32.3506 53.6423 32.7767 54.6709 33.535 55.4293C34.2934 56.1876 35.322 56.6137 36.3945 56.6137H60.6575C61.73 56.6137 62.7585 56.1876 63.5169 55.4293C64.2753 54.6709 64.7013 53.6423 64.7013 52.5698C64.7013 51.4973 64.2753 50.4688 63.5169 49.7104C62.7585 48.952 61.73 48.526 60.6575 48.526H36.3945ZM80.8766 36.1519C80.8345 35.7804 80.7532 35.4144 80.634 35.06V34.6961C80.4396 34.2803 80.1802 33.8981 79.8657 33.5638V33.5638L55.6027 9.3008C55.2684 8.98625 54.8862 8.7269 54.4704 8.53247C54.3497 8.51532 54.2272 8.51532 54.1065 8.53247C53.6957 8.29688 53.242 8.14565 52.772 8.08765H28.3068C25.0893 8.08765 22.0036 9.36578 19.7285 11.6409C17.4534 13.916 16.1753 17.0017 16.1753 20.2192V76.8328C16.1753 80.0503 17.4534 83.136 19.7285 85.4111C22.0036 87.6862 25.0893 88.9643 28.3068 88.9643H68.7451C71.9626 88.9643 75.0483 87.6862 77.3234 85.4111C79.5985 83.136 80.8766 80.0503 80.8766 76.8328V36.3945C80.8766 36.3945 80.8766 36.3945 80.8766 36.1519ZM56.6136 21.8771L67.0872 32.3507H60.6575C59.585 32.3507 58.5564 31.9246 57.7981 31.1662C57.0397 30.4079 56.6136 29.3793 56.6136 28.3068V21.8771ZM72.789 76.8328C72.789 77.9053 72.3629 78.9339 71.6046 79.6923C70.8462 80.4506 69.8176 80.8767 68.7451 80.8767H28.3068C27.2343 80.8767 26.2057 80.4506 25.4474 79.6923C24.689 78.9339 24.263 77.9053 24.263 76.8328V20.2192C24.263 19.1467 24.689 18.1181 25.4474 17.3597C26.2057 16.6014 27.2343 16.1753 28.3068 16.1753H48.526V28.3068C48.526 31.5243 49.8041 34.61 52.0792 36.8851C54.3543 39.1602 57.44 40.4383 60.6575 40.4383H72.789V76.8328ZM60.6575 64.7013H36.3945C35.322 64.7013 34.2934 65.1274 33.535 65.8857C32.7767 66.6441 32.3506 67.6727 32.3506 68.7452C32.3506 69.8177 32.7767 70.8462 33.535 71.6046C34.2934 72.363 35.322 72.789 36.3945 72.789H60.6575C61.73 72.789 62.7585 72.363 63.5169 71.6046C64.2753 70.8462 64.7013 69.8177 64.7013 68.7452C64.7013 67.6727 64.2753 66.6441 63.5169 65.8857C62.7585 65.1274 61.73 64.7013 60.6575 64.7013Z" fill="black"/>
</svg>
