<svg width="80" height="80" viewBox="0 0 80 80" fill="none" xmlns="http://www.w3.org/2000/svg">
<path d="M60 43.9333V33.3333C59.9953 28.6104 58.3192 24.0415 55.2688 20.4359C52.2183 16.8302 47.9902 14.4204 43.3334 13.6333V9.99996C43.3334 9.1159 42.9822 8.26806 42.3571 7.64294C41.7319 7.01782 40.8841 6.66663 40 6.66663C39.116 6.66663 38.2681 7.01782 37.643 7.64294C37.0179 8.26806 36.6667 9.1159 36.6667 9.99996V13.6333C32.0098 14.4204 27.7818 16.8302 24.7313 20.4359C21.6809 24.0415 20.0048 28.6104 20 33.3333V43.9333C18.0549 44.621 16.37 45.8935 15.1765 47.5764C13.983 49.2593 13.3392 51.2701 13.3334 53.3333V60C13.3334 60.884 13.6846 61.7319 14.3097 62.357C14.9348 62.9821 15.7827 63.3333 16.6667 63.3333H27.1334C27.901 66.1579 29.5767 68.6514 31.902 70.4291C34.2273 72.2068 37.073 73.17 40 73.17C42.9271 73.17 45.7727 72.2068 48.0981 70.4291C50.4234 68.6514 52.0991 66.1579 52.8667 63.3333H63.3334C64.2174 63.3333 65.0653 62.9821 65.6904 62.357C66.3155 61.7319 66.6667 60.884 66.6667 60V53.3333C66.6609 51.2701 66.0171 49.2593 64.8236 47.5764C63.63 45.8935 61.9452 44.621 60 43.9333V43.9333ZM26.6667 33.3333C26.6667 29.7971 28.0715 26.4057 30.5719 23.9052C33.0724 21.4047 36.4638 20 40 20C43.5363 20 46.9276 21.4047 49.4281 23.9052C51.9286 26.4057 53.3334 29.7971 53.3334 33.3333V43.3333H26.6667V33.3333ZM40 66.6666C38.8366 66.6596 37.6953 66.3482 36.6895 65.7635C35.6837 65.1787 34.8484 64.3409 34.2667 63.3333H45.7334C45.1517 64.3409 44.3164 65.1787 43.3106 65.7635C42.3048 66.3482 41.1635 66.6596 40 66.6666ZM60 56.6666H20V53.3333C20 52.4492 20.3512 51.6014 20.9764 50.9763C21.6015 50.3511 22.4493 50 23.3334 50H56.6667C57.5508 50 58.3986 50.3511 59.0237 50.9763C59.6489 51.6014 60 52.4492 60 53.3333V56.6666Z" fill="#0D0D0D"/>
</svg>
