<svg width="91" height="91" viewBox="0 0 91 91" fill="none" xmlns="http://www.w3.org/2000/svg">
<path d="M41.116 22.8507C42.4343 22.6486 43.7661 22.5481 45.0998 22.5501C57.0513 22.5501 68.2887 31.1566 74.8282 45.1001C73.8281 47.222 72.6985 49.2804 71.4457 51.2637C71.048 51.8794 70.839 52.5979 70.8444 53.3308C70.8528 54.151 71.1292 54.946 71.6316 55.5944C72.134 56.2428 72.8347 56.709 73.6269 56.9219C74.419 57.1349 75.259 57.0828 76.0188 56.7737C76.7786 56.4646 77.4164 55.9154 77.8349 55.21C79.586 52.4586 81.107 49.5674 82.3825 46.5658C82.5841 46.0968 82.6881 45.5917 82.6881 45.0813C82.6881 44.5708 82.5841 44.0657 82.3825 43.5967C74.7906 25.9701 60.509 15.0334 45.0998 15.0334C43.3359 15.0245 41.5748 15.1754 39.8381 15.4844C39.3446 15.5683 38.8724 15.7486 38.4485 16.015C38.0246 16.2814 37.6574 16.6286 37.3677 17.037C37.0781 17.4453 36.8717 17.9067 36.7603 18.3948C36.649 18.8828 36.6348 19.3881 36.7187 19.8816C36.8026 20.3752 36.9829 20.8474 37.2493 21.2713C37.5157 21.6951 37.863 22.0624 38.2713 22.352C38.6796 22.6417 39.141 22.8481 39.6291 22.9595C40.1172 23.0708 40.6224 23.085 41.116 23.0011V22.8507ZM13.9432 8.60664C13.5928 8.25622 13.1768 7.97825 12.7189 7.7886C12.2611 7.59895 11.7704 7.50134 11.2748 7.50134C10.7792 7.50134 10.2885 7.59895 9.83067 7.7886C9.37283 7.97825 8.95681 8.25622 8.60639 8.60664C7.89868 9.31435 7.5011 10.2742 7.5011 11.2751C7.5011 12.2759 7.89868 13.2358 8.60639 13.9435L20.2572 25.5567C14.9413 30.6738 10.7105 36.8091 7.81714 43.5967C7.6102 44.0709 7.50338 44.5827 7.50338 45.1001C7.50338 45.6174 7.6102 46.1292 7.81714 46.6034C15.409 64.23 29.6906 75.1667 45.0998 75.1667C51.8539 75.1201 58.4485 73.109 64.0794 69.3789L76.2564 81.5935C76.6058 81.9457 77.0215 82.2253 77.4794 82.4161C77.9374 82.6069 78.4287 82.7052 78.9248 82.7052C79.421 82.7052 79.9122 82.6069 80.3702 82.4161C80.8282 82.2253 81.2438 81.9457 81.5932 81.5935C81.9455 81.2441 82.2251 80.8284 82.4159 80.3704C82.6067 79.9124 82.7049 79.4212 82.7049 78.9251C82.7049 78.4289 82.6067 77.9377 82.4159 77.4797C82.2251 77.0217 81.9455 76.606 81.5932 76.2566L13.9432 8.60664ZM37.8462 43.1457L47.0541 52.3536C46.4189 52.5358 45.7606 52.6244 45.0998 52.6167C43.1063 52.6167 41.1944 51.8248 39.7847 50.4151C38.3751 49.0055 37.5831 47.0936 37.5831 45.1001C37.5754 44.4393 37.6641 43.7809 37.8462 43.1457ZM45.0998 67.6501C33.1483 67.6501 21.9109 59.0435 15.409 45.1001C17.8372 39.7397 21.2835 34.9021 25.5565 30.856L32.2087 37.5834C30.6462 40.4352 30.0505 43.7168 30.5109 46.9358C30.9714 50.1549 32.4632 53.1379 34.7626 55.4372C37.062 57.7366 40.045 59.2285 43.264 59.6889C46.4831 60.1494 49.7647 59.5537 52.6165 57.9911L58.5922 63.8917C54.4997 66.3004 49.8482 67.5961 45.0998 67.6501Z" fill="#0D0D0D"/>
</svg>
