<svg width="80" height="80" viewBox="0 0 80 80" fill="none" xmlns="http://www.w3.org/2000/svg">
<g clip-path="url(#clip0_131_500)">
<g filter="url(#filter0_d_131_500)">
<path d="M72.8778 32.1057C72.4871 30.9041 71.4485 30.0282 70.1982 29.8459L51.2784 27.0965L42.818 9.95348C42.2298 8.86625 41.0753 8.20726 39.84 8.25364V62.3002L56.7626 71.1968C58.3859 72.05 60.3936 71.4257 61.2469 69.8023C61.5864 69.1562 61.7037 68.4163 61.5805 67.6968L58.348 48.8532L72.0381 35.5101C72.9429 34.6275 73.2684 33.3079 72.8778 32.1057Z" fill="#B3E5BF"/>
</g>
<path d="M36.8622 9.95357L28.4017 27.0968L9.48189 29.8464C8.75989 29.9516 8.09261 30.2916 7.58318 30.8138C6.30253 32.1269 6.32886 34.2296 7.64195 35.5103L21.3321 48.8533L18.0996 67.6969C17.9764 68.4162 18.0938 69.1563 18.4332 69.8023C19.2865 71.4258 21.2942 72.0502 22.9175 71.1968L39.8401 62.3003V8.3114C38.6595 8.31402 37.5059 8.86338 36.8622 9.95357Z" fill="#0D0D0D"/>
</g>
<defs>
<filter id="filter0_d_131_500" x="26.56" y="8.25134" width="59.7606" height="89.8874" filterUnits="userSpaceOnUse" color-interpolation-filters="sRGB">
<feFlood flood-opacity="0" result="BackgroundImageFix"/>
<feColorMatrix in="SourceAlpha" type="matrix" values="0 0 0 0 0 0 0 0 0 0 0 0 0 0 0 0 0 0 127 0" result="hardAlpha"/>
<feOffset dy="13.28"/>
<feGaussianBlur stdDeviation="6.64"/>
<feComposite in2="hardAlpha" operator="out"/>
<feColorMatrix type="matrix" values="0 0 0 0 0 0 0 0 0 0 0 0 0 0 0 0 0 0 0.05 0"/>
<feBlend mode="normal" in2="BackgroundImageFix" result="effect1_dropShadow_131_500"/>
<feBlend mode="normal" in="SourceGraphic" in2="effect1_dropShadow_131_500" result="shape"/>
</filter>
<clipPath id="clip0_131_500">
<rect width="79.68" height="79.68" fill="white"/>
</clipPath>
</defs>
</svg>
