<svg width="85" height="84" viewBox="0 0 85 84" fill="none" xmlns="http://www.w3.org/2000/svg">
<path d="M66.7359 7.8302H18.2642C15.5095 7.8302 12.8676 8.92452 10.9197 10.8724C8.97176 12.8203 7.87744 15.4622 7.87744 18.217V52.8396C7.87744 55.5944 8.97176 58.2363 10.9197 60.1842C12.8676 62.1321 15.5095 63.2264 18.2642 63.2264H58.3919L71.2023 76.0714C71.5258 76.3923 71.9094 76.6462 72.3313 76.8185C72.7531 76.9908 73.2048 77.0781 73.6605 77.0755C74.1146 77.0872 74.5652 76.9923 74.9761 76.7985C75.6084 76.5388 76.1496 76.0977 76.5316 75.5308C76.9136 74.964 77.1193 74.2968 77.1227 73.6132V18.217C77.1227 15.4622 76.0284 12.8203 74.0805 10.8724C72.1326 8.92452 69.4907 7.8302 66.7359 7.8302ZM70.1982 65.2692L62.2696 57.306C61.9461 56.9851 61.5624 56.7312 61.1406 56.5589C60.7188 56.3866 60.2671 56.2993 59.8114 56.3019H18.2642C17.346 56.3019 16.4653 55.9371 15.816 55.2878C15.1667 54.6385 14.802 53.7579 14.802 52.8396V18.217C14.802 17.2987 15.1667 16.4181 15.816 15.7688C16.4653 15.1195 17.346 14.7547 18.2642 14.7547H66.7359C67.6542 14.7547 68.5348 15.1195 69.1841 15.7688C69.8334 16.4181 70.1982 17.2987 70.1982 18.217V65.2692Z" fill="#0D0D0D"/>
</svg>
