<svg width="98" height="98" viewBox="0 0 98 98" fill="none" xmlns="http://www.w3.org/2000/svg">
<path d="M82.2516 37.6885L25.6379 9.38169C23.4036 8.26967 20.8808 7.87379 18.4133 8.24801C15.9458 8.62223 13.6538 9.74835 11.8497 11.4728C10.0457 13.1973 8.81735 15.4362 8.33225 17.8843C7.84715 20.3324 8.12888 22.8705 9.13902 25.1526L18.8442 46.868C19.0644 47.3931 19.1779 47.9567 19.1779 48.526C19.1779 49.0953 19.0644 49.659 18.8442 50.184L9.13902 71.8994C8.31691 73.7463 7.96937 75.7693 8.12797 77.7846C8.28658 79.8 8.9463 81.7438 10.0472 83.4393C11.1481 85.1348 12.6552 86.5284 14.4317 87.4933C16.2081 88.4582 18.1975 88.9639 20.2191 88.9644C22.1126 88.9455 23.9778 88.5033 25.6783 87.6703L82.292 59.3635C84.3002 58.3533 85.9881 56.805 87.1676 54.8913C88.3471 52.9777 88.9717 50.7739 88.9717 48.526C88.9717 46.2781 88.3471 44.0743 87.1676 42.1607C85.9881 40.2471 84.3002 38.6987 82.292 37.6885H82.2516ZM78.6525 52.125L22.0389 80.4319C21.2954 80.7888 20.4607 80.9099 19.6465 80.779C18.8323 80.6481 18.0776 80.2714 17.4835 79.6993C16.8895 79.1273 16.4846 78.3873 16.323 77.5787C16.1615 76.77 16.251 75.9312 16.5797 75.1749L26.2444 53.4595C26.3696 53.1695 26.4776 52.8725 26.568 52.5698H54.43C55.5025 52.5698 56.531 52.1438 57.2894 51.3854C58.0478 50.6271 58.4738 49.5985 58.4738 48.526C58.4738 47.4535 58.0478 46.425 57.2894 45.6666C56.531 44.9082 55.5025 44.4822 54.43 44.4822H26.568C26.4776 44.1796 26.3696 43.8825 26.2444 43.5925L16.5797 21.8771C16.251 21.1208 16.1615 20.282 16.323 19.4734C16.4846 18.6647 16.8895 17.9247 17.4835 17.3527C18.0776 16.7807 18.8323 16.4039 19.6465 16.273C20.4607 16.1421 21.2954 16.2632 22.0389 16.6202L78.6525 44.927C79.3149 45.2663 79.8708 45.7819 80.259 46.4169C80.6472 47.0519 80.8526 47.7818 80.8526 48.526C80.8526 49.2703 80.6472 50.0001 80.259 50.6351C79.8708 51.2701 79.3149 51.7857 78.6525 52.125V52.125Z" fill="#0D0D0D"/>
</svg>
