<svg width="98" height="98" viewBox="0 0 98 98" fill="none" xmlns="http://www.w3.org/2000/svg">
<path d="M86.2145 38.6186L78.5717 36.071L82.1707 28.873C82.5355 28.1195 82.6576 27.2715 82.52 26.4457C82.3823 25.62 81.9918 24.8574 81.4024 24.263L72.789 15.6496C72.1915 15.0515 71.4215 14.6557 70.5873 14.5179C69.7532 14.38 68.8968 14.5072 68.1386 14.8813L60.9406 18.4803L58.393 10.8375C58.1239 10.0408 57.6132 9.34782 56.9319 8.85497C56.2506 8.36212 55.4326 8.09391 54.5918 8.08766H42.4603C41.6125 8.08547 40.7855 8.34978 40.0961 8.84322C39.4067 9.33666 38.8899 10.0343 38.6186 10.8375L36.071 18.4803L28.873 14.8813C28.1195 14.5165 27.2715 14.3944 26.4457 14.5321C25.62 14.6697 24.8574 15.0602 24.263 15.6496L15.6496 24.263C15.0515 24.8605 14.6557 25.6305 14.5179 26.4647C14.38 27.2989 14.5072 28.1552 14.8813 28.9134L18.4803 36.1114L10.8375 38.6591C10.0408 38.9281 9.34782 39.4388 8.85497 40.1201C8.36212 40.8014 8.09391 41.6194 8.08766 42.4603V54.5918C8.08547 55.4395 8.34978 56.2665 8.84322 56.9559C9.33666 57.6453 10.0343 58.1621 10.8375 58.4334L18.4803 60.981L14.8813 68.179C14.5165 68.9325 14.3944 69.7805 14.5321 70.6063C14.6697 71.432 15.0602 72.1946 15.6496 72.789L24.263 81.4024C24.8605 82.0005 25.6305 82.3963 26.4647 82.5341C27.2989 82.672 28.1552 82.5449 28.9134 82.1707L36.1114 78.5717L38.6591 86.2145C38.9303 87.0177 39.4472 87.7154 40.1366 88.2088C40.8259 88.7022 41.6529 88.9665 42.5007 88.9644H54.6322C55.48 88.9665 56.307 88.7022 56.9963 88.2088C57.6857 87.7154 58.2026 87.0177 58.4738 86.2145L61.0215 78.5717L68.2195 82.1707C68.9681 82.5263 69.8079 82.6434 70.6252 82.5059C71.4425 82.3685 72.1979 81.9833 72.789 81.4024L81.4024 72.789C82.0005 72.1915 82.3963 71.4215 82.5341 70.5873C82.672 69.7532 82.5449 68.8968 82.1707 68.1386L78.5717 60.9406L86.2145 58.393C87.0112 58.1239 87.7042 57.6132 88.197 56.9319C88.6899 56.2506 88.9581 55.4326 88.9644 54.5918V42.4603C88.9665 41.6125 88.7022 40.7855 88.2088 40.0961C87.7154 39.4067 87.0177 38.8899 86.2145 38.6186ZM80.8767 51.6802L76.0241 53.2977C74.9082 53.6597 73.8844 54.2601 73.0238 55.0572C72.1631 55.8544 71.4862 56.8292 71.0399 57.9141C70.5936 58.999 70.3887 60.168 70.4394 61.34C70.49 62.512 70.795 63.659 71.3332 64.7013L73.6382 69.3113L69.19 73.7595L64.7013 71.3332C63.6643 70.8166 62.5284 70.5288 61.3705 70.4893C60.2126 70.4498 59.0597 70.6595 57.9899 71.1043C56.9201 71.5491 55.9583 72.2186 55.1697 73.0674C54.3811 73.9162 53.7841 74.9245 53.419 76.0241L51.8015 80.8767H45.3718L43.7543 76.0241C43.3923 74.9082 42.7919 73.8844 41.9948 73.0238C41.1977 72.1631 40.2228 71.4862 39.1379 71.0399C38.053 70.5936 36.884 70.3887 35.712 70.4394C34.54 70.49 33.393 70.795 32.3507 71.3332L27.7407 73.6382L23.2925 69.19L25.7188 64.7013C26.257 63.659 26.562 62.512 26.6127 61.34C26.6633 60.168 26.4584 58.999 26.0121 57.9141C25.5658 56.8292 24.8889 55.8544 24.0282 55.0572C23.1676 54.2601 22.1438 53.6597 21.0279 53.2977L16.1753 51.6802V45.3718L21.0279 43.7543C22.1438 43.3923 23.1676 42.7919 24.0282 41.9948C24.8889 41.1977 25.5658 40.2228 26.0121 39.1379C26.4584 38.053 26.6633 36.884 26.6127 35.712C26.562 34.54 26.257 33.393 25.7188 32.3507L23.4138 27.862L27.862 23.4138L32.3507 25.7188C33.393 26.257 34.54 26.562 35.712 26.6127C36.884 26.6633 38.053 26.4584 39.1379 26.0121C40.2228 25.5658 41.1977 24.8889 41.9948 24.0282C42.7919 23.1676 43.3923 22.1438 43.7543 21.0279L45.3718 16.1753H51.6802L53.2977 21.0279C53.6597 22.1438 54.2601 23.1676 55.0572 24.0282C55.8544 24.8889 56.8292 25.5658 57.9141 26.0121C58.999 26.4584 60.168 26.6633 61.34 26.6127C62.512 26.562 63.659 26.257 64.7013 25.7188L69.3113 23.4138L73.7595 27.862L71.3332 32.3507C70.8166 33.3877 70.5288 34.5236 70.4893 35.6815C70.4498 36.8394 70.6595 37.9923 71.1043 39.0621C71.5491 40.132 72.2186 41.0937 73.0674 41.8823C73.9162 42.6709 74.9245 43.2679 76.0241 43.633L80.8767 45.2505V51.6802ZM48.526 32.3507C45.3268 32.3507 42.1995 33.2993 39.5395 35.0767C36.8795 36.8541 34.8062 39.3803 33.5819 42.336C32.3577 45.2916 32.0373 48.5439 32.6615 51.6817C33.2856 54.8194 34.8262 57.7015 37.0883 59.9637C39.3505 62.2259 42.2326 63.7664 45.3704 64.3905C48.5081 65.0147 51.7604 64.6943 54.716 63.4701C57.6717 62.2458 60.1979 60.1726 61.9753 57.5125C63.7527 54.8525 64.7013 51.7252 64.7013 48.526C64.7013 44.236 62.9972 40.1218 59.9637 37.0883C56.9302 34.0548 52.816 32.3507 48.526 32.3507V32.3507ZM48.526 56.6137C46.9264 56.6137 45.3627 56.1393 44.0327 55.2507C42.7027 54.362 41.6661 53.0988 41.054 51.621C40.4418 50.1432 40.2817 48.517 40.5937 46.9482C40.9058 45.3793 41.6761 43.9382 42.8072 42.8072C43.9382 41.6761 45.3793 40.9058 46.9482 40.5937C48.517 40.2817 50.1432 40.4418 51.621 41.054C53.0988 41.6661 54.362 42.7027 55.2507 44.0327C56.1393 45.3627 56.6137 46.9264 56.6137 48.526C56.6137 50.671 55.7616 52.7281 54.2448 54.2448C52.7281 55.7616 50.671 56.6137 48.526 56.6137Z" fill="black"/>
</svg>
