<svg width="80" height="81" viewBox="0 0 80 81" fill="none" xmlns="http://www.w3.org/2000/svg">
<path d="M36.52 10.36C30.3563 10.36 24.4451 12.8085 20.0868 17.1668C15.7285 21.5252 13.28 27.4363 13.28 33.6C13.28 34.4805 13.6297 35.3249 14.2524 35.9476C14.875 36.5702 15.7194 36.92 16.6 36.92C17.4805 36.92 18.3249 36.5702 18.9476 35.9476C19.5702 35.3249 19.92 34.4805 19.92 33.6C19.92 29.1974 21.6689 24.9751 24.782 21.862C27.8951 18.7489 32.1174 17 36.52 17C40.9226 17 45.1448 18.7489 48.2579 21.862C51.371 24.9751 53.12 29.1974 53.12 33.6C53.1095 36.6035 52.2957 39.5495 50.7628 42.1324L38.9436 66.8C38.3614 67.8084 37.5242 68.646 36.5161 69.2287C35.508 69.8114 34.3644 70.1188 33.2 70.12C31.4389 70.12 29.75 69.4204 28.5048 68.1752C27.2595 66.9299 26.56 65.241 26.56 63.48C26.56 62.5995 26.2102 61.755 25.5876 61.1324C24.9649 60.5098 24.1205 60.16 23.24 60.16C22.3594 60.16 21.515 60.5098 20.8924 61.1324C20.2697 61.755 19.92 62.5995 19.92 63.48C19.92 67.002 21.3191 70.3799 23.8096 72.8703C26.3001 75.3608 29.6779 76.76 33.2 76.76C35.5743 76.7578 37.9047 76.1192 39.9484 74.9105C41.9921 73.7018 43.6743 71.9673 44.82 69.8876L56.6392 45.22C58.6917 41.692 59.7688 37.6816 59.76 33.6C59.76 27.4363 57.3115 21.5252 52.9531 17.1668C48.5948 12.8085 42.6836 10.36 36.52 10.36ZM13.28 50.2C12.6233 50.2 11.9814 50.3947 11.4355 50.7595C10.8895 51.1243 10.464 51.6428 10.2127 52.2495C9.9614 52.8561 9.89565 53.5237 10.0238 54.1677C10.1519 54.8117 10.4681 55.4033 10.9324 55.8676C11.3967 56.3319 11.9882 56.6481 12.6323 56.7762C13.2763 56.9043 13.9438 56.8385 14.5505 56.5872C15.1571 56.336 15.6756 55.9104 16.0404 55.3645C16.4052 54.8185 16.6 54.1766 16.6 53.52C16.6 52.6395 16.2502 51.795 15.6276 51.1724C15.0049 50.5498 14.1605 50.2 13.28 50.2ZM58.3988 4.38397C58.05 4.12238 57.6531 3.93205 57.2307 3.82384C56.8084 3.71564 56.3689 3.69168 55.9372 3.75334C55.5056 3.815 55.0904 3.96106 54.7152 4.1832C54.3401 4.40533 54.0124 4.69918 53.7508 5.04797C53.4892 5.39676 53.2988 5.79366 53.1906 6.21601C53.0824 6.63836 53.0585 7.07788 53.1201 7.50949C53.1818 7.9411 53.3279 8.35633 53.55 8.73149C53.7721 9.10665 54.066 9.43438 54.4148 9.69597C58.1318 12.4757 61.1502 16.0832 63.2306 20.2324C65.311 24.3816 66.3961 28.9584 66.4 33.6C66.4 34.4805 66.7497 35.3249 67.3724 35.9476C67.995 36.5702 68.8394 36.92 69.72 36.92C70.6005 36.92 71.4449 36.5702 72.0676 35.9476C72.6902 35.3249 73.04 34.4805 73.04 33.6C73.0207 27.9303 71.6888 22.3422 69.1487 17.2734C66.6085 12.2046 62.9291 7.79291 58.3988 4.38397V4.38397ZM36.52 30.28C37.4005 30.28 38.2449 30.6298 38.8676 31.2524C39.4902 31.875 39.84 32.7195 39.84 33.6C39.84 34.4805 40.1897 35.3249 40.8124 35.9476C41.435 36.5702 42.2794 36.92 43.16 36.92C44.0405 36.92 44.8849 36.5702 45.5076 35.9476C46.1302 35.3249 46.48 34.4805 46.48 33.6C46.48 30.9584 45.4306 28.425 43.5627 26.5572C41.6949 24.6893 39.1615 23.64 36.52 23.64C33.8784 23.64 31.345 24.6893 29.4772 26.5572C27.6093 28.425 26.56 30.9584 26.56 33.6C26.5555 35.5864 27.1452 37.5288 28.2532 39.1776C28.7107 39.8269 29.2335 40.4277 29.8136 40.9704L30.4776 41.7008C30.8416 42.2463 31.0358 42.8875 31.0358 43.5434C31.0358 44.1992 30.8416 44.8404 30.4776 45.386C29.9768 46.1084 29.783 46.9999 29.9386 47.8649C30.0942 48.73 30.5865 49.4981 31.3076 50.0008C31.8627 50.3882 32.523 50.5968 33.2 50.5984C33.7352 50.5975 34.2623 50.4672 34.7363 50.2186C35.2104 49.9701 35.6173 49.6106 35.9224 49.1708C37.0572 47.5135 37.6645 45.5519 37.6645 43.5434C37.6645 41.5348 37.0572 39.5732 35.9224 37.916C35.5732 37.4206 35.1846 36.9543 34.7604 36.5216L34.2956 36.0568C34.1013 35.8735 33.9235 35.6736 33.7644 35.4592C33.395 34.9096 33.1985 34.2621 33.2 33.6C33.2 32.7195 33.5497 31.875 34.1724 31.2524C34.795 30.6298 35.6394 30.28 36.52 30.28V30.28ZM23.24 50.2C23.8966 50.2 24.5385 50.0053 25.0845 49.6404C25.6304 49.2756 26.056 48.7571 26.3072 48.1505C26.5585 47.5438 26.6243 46.8763 26.4962 46.2323C26.3681 45.5883 26.0519 44.9967 25.5876 44.5324C25.1232 44.0681 24.5317 43.7519 23.8877 43.6238C23.2436 43.4957 22.5761 43.5614 21.9695 43.8127C21.3628 44.064 20.8443 44.4895 20.4795 45.0355C20.1147 45.5814 19.92 46.2233 19.92 46.88C19.92 47.7605 20.2697 48.6049 20.8924 49.2276C21.515 49.8502 22.3594 50.2 23.24 50.2Z" fill="#0D0D0D"/>
</svg>
