<svg width="98" height="98" viewBox="0 0 98 98" fill="none" xmlns="http://www.w3.org/2000/svg">
<path d="M63.5286 51.3971C67.4932 48.2779 70.3869 44.0006 71.8073 39.1602C73.2277 34.3199 73.1041 29.1571 71.4537 24.3902C69.8032 19.6234 66.7081 15.4895 62.5988 12.5636C58.4895 9.63773 53.5705 8.06543 48.526 8.06543C43.4815 8.06543 38.5624 9.63773 34.4532 12.5636C30.3439 15.4895 27.2487 19.6234 25.5983 24.3902C23.9479 29.1571 23.8243 34.3199 25.2447 39.1602C26.6651 44.0006 29.5588 48.2779 33.5234 51.3971C26.73 54.1188 20.8026 58.633 16.373 64.4584C11.9434 70.2838 9.1777 77.2021 8.37071 84.4757C8.31229 85.0067 8.35904 85.5441 8.5083 86.0571C8.65755 86.57 8.90638 87.0486 9.24058 87.4654C9.91553 88.3072 10.8972 88.8464 11.9697 88.9643C13.0422 89.0823 14.1176 88.7694 14.9594 88.0945C15.8012 87.4195 16.3404 86.4378 16.4584 85.3653C17.3463 77.4604 21.1156 70.1598 27.046 64.8582C32.9764 59.5567 40.6522 56.6259 48.6069 56.6259C56.5615 56.6259 64.2373 59.5567 70.1677 64.8582C76.0981 70.1598 79.8674 77.4604 80.7553 85.3653C80.8653 86.359 81.3394 87.2767 82.0862 87.9413C82.833 88.606 83.7995 88.9704 84.7992 88.9643H85.244C86.304 88.8424 87.2729 88.3064 87.9395 87.4732C88.606 86.64 88.9163 85.5771 88.8026 84.5161C87.9918 77.2219 85.2111 70.2858 80.7588 64.4514C76.3064 58.6171 70.3502 54.1044 63.5286 51.3971V51.3971ZM48.526 48.526C45.3268 48.526 42.1995 47.5773 39.5394 45.8C36.8794 44.0226 34.8062 41.4964 33.5819 38.5407C32.3576 35.585 32.0373 32.3327 32.6614 29.195C33.2856 26.0573 34.8261 23.1751 37.0883 20.913C39.3505 18.6508 42.2326 17.1103 45.3703 16.4861C48.508 15.862 51.7604 16.1823 54.716 17.4066C57.6717 18.6309 60.1979 20.7041 61.9753 23.3641C63.7527 26.0241 64.7013 29.1515 64.7013 32.3507C64.7013 36.6406 62.9971 40.7549 59.9637 43.7884C56.9302 46.8218 52.816 48.526 48.526 48.526Z" fill="black"/>
</svg>
